<?xml version="1.0" encoding="utf-8"?>
<!-- Generator: Adobe Illustrator 27.5.0, SVG Export Plug-In . SVG Version: 6.00 Build 0)  -->
<svg version="1.1" xmlns="http://www.w3.org/2000/svg" xmlns:xlink="http://www.w3.org/1999/xlink" x="0px" y="0px"
	 viewBox="0 0 750 500" style="enable-background:new 0 0 750 500;" xml:space="preserve">
<g id="OBJECTS">
	<g>
		<defs>
			<rect id="SVGID_00000047038822733062798590000005676846355597438655_" width="750" height="500"/>
		</defs>
		<clipPath id="SVGID_00000114794801222168057090000006694075009704612742_">
			<use xlink:href="#SVGID_00000047038822733062798590000005676846355597438655_"  style="overflow:visible;"/>
		</clipPath>
		<polygon style="clip-path:url(#SVGID_00000114794801222168057090000006694075009704612742_);fill:#466991;" points="
			25.002,346.667 32.754,313.511 37.755,346.667 		"/>
		<polygon style="clip-path:url(#SVGID_00000114794801222168057090000006694075009704612742_);fill:#466991;" points="
			5.202,353.111 15.203,310.333 21.655,353.111 		"/>
		<polygon style="clip-path:url(#SVGID_00000114794801222168057090000006694075009704612742_);fill:#466991;" points="
			16.638,358.621 24.389,325.465 29.39,358.621 		"/>
		<polygon style="clip-path:url(#SVGID_00000114794801222168057090000006694075009704612742_);fill:#466991;" points="
			33.007,355.885 40.758,322.729 45.759,355.885 		"/>
		<polygon style="clip-path:url(#SVGID_00000114794801222168057090000006694075009704612742_);fill:#466991;" points="
			40.935,351.43 48.686,318.274 53.687,351.43 		"/>
		<polygon style="clip-path:url(#SVGID_00000114794801222168057090000006694075009704612742_);fill:#466991;" points="
			47.777,340.961 55.529,307.805 60.53,340.961 		"/>
		<polygon style="clip-path:url(#SVGID_00000114794801222168057090000006694075009704612742_);fill:#466991;" points="
			55.661,329.089 63.412,295.933 68.413,329.089 		"/>
		<g style="clip-path:url(#SVGID_00000114794801222168057090000006694075009704612742_);">
			<g>
				<polygon style="fill:#466991;" points="471.905,283.056 515.822,238.17 552.81,246.781 595.044,193.5 651.016,268.417
					651.016,378.639 471.044,378.639 				"/>
				<polygon style="fill:#5E8BB4;" points="595.044,193.5 588.155,218.472 600.211,223.639 576.099,255.5 582.988,268.417
					576.099,313.194 539.098,353.667 465.016,298.125 484.822,268.417 515.822,238.17 552.81,246.781 				"/>
			</g>
			<polygon style="fill:#4C7FA5;" points="484.822,268.417 515.822,238.17 536.591,243.005 525.294,253.293 546.822,255.5
				532.613,273.583 542.516,294.25 508.933,320.944 471.044,289.083 			"/>
		</g>
		<g style="clip-path:url(#SVGID_00000114794801222168057090000006694075009704612742_);">
			<polygon style="fill:#466991;" points="-10.998,364 24.037,340 44.002,340 103.002,275 160.002,239.875 192.002,199
				286.438,286.403 286.438,477 -10.998,477 			"/>
			<polygon style="fill:#5E8BB4;" points="192.002,199 199.002,252 192.002,275 209.002,275 179.002,326 171.002,350 159.002,473
				-10.998,473 -10.998,364 24.037,340 44.002,340 103.002,275 160.002,239.875 			"/>
			<polygon style="fill:#4C7FA5;" points="-10.998,403 24.037,377 45.002,384 99.002,326 113.002,336 137.72,317 114.002,370
				108.002,355 92.002,395 75.002,403 40.002,460.083 -10.998,482 			"/>
			<polygon style="fill:#D2EEFF;" points="192.002,199 160.002,239.875 127.002,260.21 152.002,260.21 137.72,271 159.502,271
				166.002,281 159.502,300 180.669,288.833 186.502,303.333 199.521,291.119 209.002,275 192.002,275 199.002,252 			"/>
		</g>
		<g style="clip-path:url(#SVGID_00000114794801222168057090000006694075009704612742_);">
			<polygon style="fill:#466991;" points="183.002,359 345.002,184 380,135 451.002,210 462.002,239.875 485.002,247 485.002,265
				508.002,265 508.002,282 535.002,289 547.002,331 599.002,346 642.002,373 678.002,415 133.002,415 146.002,376 			"/>
			<polygon style="fill:#2F547F;" points="235.002,415 267.002,399 300.002,389 330.002,389 358.002,369 374.002,377 394.002,364
				435.002,389.5 435.002,376 476.002,395 476.002,386 518.002,400 505.002,406 532.002,415 			"/>
			<polygon style="fill:#5E8BB4;" points="380,135 345.002,184 183.002,359 146.002,376 133.002,415 235.002,415 267.002,399
				300.002,389 330.002,389 358.002,369 374.002,377 394.002,364 399.002,350 383.502,351 399.002,318 380,325 393.002,287
				399.002,293 405.502,260 419.002,265 389.002,232 365.002,244 383.502,198 398.002,185 394.002,160 380,154 			"/>
			<polygon style="fill:#D2EEFF;" points="380,135 345.002,184 305.197,227 305.197,245 319.002,231 322.002,239.875 342.598,217
				347.002,232 342.598,252 366.002,218 371.723,227.29 383.502,198 398.002,185 394.002,160 380,154 			"/>
			<polygon style="fill:#4C7FA5;" points="255.002,345 276.002,319 265.502,309 297.002,275 297.002,290 321.002,265 321.002,275
				326.002,288 345.002,275 345.002,292 322.002,319 300.002,320 288.002,333 276.002,329 			"/>
			<polygon style="fill:#2F547F;" points="380,135 380,154 394.002,160 398.002,185 383.502,198 405.502,222 411.002,213
				432.002,239.875 446.002,226 462.002,239.875 451.002,210 			"/>
			<polygon style="fill:#2F547F;" points="678.002,415 642.002,373 599.002,346 547.002,331 535.002,289 508.002,282 508.002,265
				485.002,265 496.002,300 523.002,305 551.002,371 607.002,374 			"/>
			<polygon style="fill:#4C7FA5;" points="103.002,428 146.002,376 183.002,359 219.002,340 227.002,345 246.002,326 235.002,364
				246.002,374 235.002,396 246.002,399 235.002,415 			"/>
		</g>
		<polygon style="clip-path:url(#SVGID_00000114794801222168057090000006694075009704612742_);fill:#2B476C;" points="
			23.002,461.354 41.238,383.354 53.002,461.354 		"/>
		<polygon style="clip-path:url(#SVGID_00000114794801222168057090000006694075009704612742_);fill:#2B476C;" points="
			462.121,395.472 476.836,332.528 486.33,395.472 		"/>
		<polygon style="clip-path:url(#SVGID_00000114794801222168057090000006694075009704612742_);fill:#2B476C;" points="
			477.198,390.903 496.323,309.097 508.662,390.903 		"/>
		<polygon style="clip-path:url(#SVGID_00000114794801222168057090000006694075009704612742_);fill:#2B476C;" points="
			440.807,395.472 455.522,332.528 465.016,395.472 		"/>
		<polygon style="clip-path:url(#SVGID_00000114794801222168057090000006694075009704612742_);fill:#2B476C;" points="45.002,454
			63.238,376 75.002,454 		"/>
		<polygon style="clip-path:url(#SVGID_00000114794801222168057090000006694075009704612742_);fill:#2B476C;" points="60.002,473
			78.238,395 90.002,473 		"/>
		<polygon style="clip-path:url(#SVGID_00000114794801222168057090000006694075009704612742_);fill:#2B476C;" points="
			429.356,400.15 440.24,353.596 447.262,400.15 		"/>
		<polygon style="clip-path:url(#SVGID_00000114794801222168057090000006694075009704612742_);fill:#2B476C;" points="
			499.709,382.554 510.593,336 517.615,382.554 		"/>
		<polygon style="clip-path:url(#SVGID_00000114794801222168057090000006694075009704612742_);fill:#2B476C;" points="99.002,454
			117.238,376 129.002,454 		"/>
		<polygon style="clip-path:url(#SVGID_00000114794801222168057090000006694075009704612742_);fill:#2B476C;" points="3.92,500.354
			22.155,422.354 33.92,500.354 		"/>
		<polygon style="clip-path:url(#SVGID_00000114794801222168057090000006694075009704612742_);fill:#2B476C;" points="75.002,442
			93.238,364 105.002,442 		"/>
		<g style="clip-path:url(#SVGID_00000114794801222168057090000006694075009704612742_);">
			<polygon style="fill:#2B476C;" points="0,467 128.002,405 366.002,350 462.002,391 516.002,354 576.502,316 750,87 777.002,87
				777.002,512 0,512 			"/>
			<polygon style="fill:#112945;" points="735.268,106.444 678.002,235 706.635,239.875 694.002,252 728.002,260 678.002,345
				700.002,345 640.002,461 662.002,467.083 605.002,513 768.002,506 768.002,87 750,87 			"/>
			<polygon style="fill:#112945;" points="366.002,350 351.599,373.573 336.002,369 328.002,377 321.002,397 310.002,389.5
				290.002,428 345.002,415 388.501,428 411.002,409 428.002,417 428.002,406 485.002,422 469.002,389.5 			"/>
			<polygon style="fill:#112945;" points="576.502,316 501.408,364 556.002,355 558.002,384 609.002,299.5 625.002,310 626.506,250
							"/>
			<polygon style="fill:#112945;" points="0,467 92.174,422.354 127.002,444.677 110.002,460.083 75.002,467 90.002,485 63.501,506
				-18.998,512 -18.998,467.177 			"/>
		</g>
	</g>
</g>
</svg>
